<svg xmlns="http://www.w3.org/2000/svg" version="1.1" xmlns:xlink="http://www.w3.org/1999/xlink" width="1000" height="1000"><metadata><rdf:RDF xmlns:rdf="http://www.w3.org/1999/02/22-rdf-syntax-ns#" xmlns:dc="http://purl.org/dc/elements/1.1/"><rdf:Description><dc:creator>RealFaviconGenerator</dc:creator><dc:source>https://realfavicongenerator.net</dc:source></rdf:Description></rdf:RDF></metadata><style>
    #light-icon {
      display: inline;
    }
    #dark-icon {
      display: none;
    }

    @media (prefers-color-scheme: dark) {
      #light-icon {
        display: none;
      }
      #dark-icon {
        display: inline;
      }
    }
  </style><g id="light-icon"><svg xmlns="http://www.w3.org/2000/svg" version="1.1" xmlns:xlink="http://www.w3.org/1999/xlink" width="1000" height="1000"><g clip-path="url(#SvgjsClipPath1025)"><rect width="1000" height="1000" fill="0A0A0A"></rect><g transform="matrix(3.056768558951965,0,0,3.056768558951965,150,150)"><svg xmlns="http://www.w3.org/2000/svg" width="229" height="229" viewBox="0 0 229 229" fill="none"><path d="M50.4825 30.8208L66.0296 46.3678L80.6049 31.7925C87.5282 24.8692 98.8241 24.7477 105.869 31.7924L112.671 38.5943L128.218 23.0473L113.642 8.47192C102.347 -2.82397 84.1273 -2.82397 72.8314 8.47192L50.4825 30.8208Z" fill="#89F336"></path><path d="M198.179 178.518L182.632 162.971L197.208 148.395C204.131 141.472 204.252 130.176 197.208 123.131L190.406 116.33L205.953 100.783L220.528 115.358C231.824 126.654 231.824 144.873 220.528 156.169L198.179 178.518Z" fill="#89F336"></path><path d="M186.519 58.028L170.972 42.481C155.864 45.3347 145.386 40.2152 137.935 32.7641L122.388 48.3112L129.189 55.113C135.384 61.3075 142.55 63.3723 149.838 63.6152L73.8031 139.65C63.9647 150.46 78.5401 165.035 89.3501 155.197L165.385 79.1623C165.628 86.4499 167.693 93.6162 173.887 99.8107L180.689 106.612L196.236 91.0655C188.785 83.6144 183.665 73.1363 186.519 58.028Z" fill="#E6E6E6"></path><path d="M58.2561 161.027L58.2561 58.028L40.7656 40.5376L40.7656 172.444C41.13 180.097 48.9035 187.87 56.3127 188.234L188.463 188.234L170.972 170.744L67.973 170.744C62.7501 170.137 58.8634 166.25 58.2561 161.027Z" fill="#89F336"></path><path d="M0 197.906L14.4539 183.452C17.288 180.618 20.8711 179.95 25.2639 180.658L38.8676 182.359L24.6971 196.529C21.863 199.364 19.4338 200.335 13.6037 199.606L0 197.906Z" fill="#E6E6E6"></path><path d="M31.0941 229L45.548 214.546C48.3821 211.712 49.0501 208.129 48.3416 203.736L46.6411 190.132L32.4706 204.303C29.6365 207.137 28.6649 209.566 29.3936 215.396L31.0941 229Z" fill="#E6E6E6"></path></svg></g></g><defs><clipPath id="SvgjsClipPath1025"><rect width="1000" height="1000" x="0" y="0" rx="350" ry="350"></rect></clipPath></defs></svg></g><g id="dark-icon"><svg xmlns="http://www.w3.org/2000/svg" version="1.1" xmlns:xlink="http://www.w3.org/1999/xlink" width="1000" height="1000"><g clip-path="url(#SvgjsClipPath1026)"><rect width="1000" height="1000" fill="0A0A0A"></rect><g transform="matrix(3.056768558951965,0,0,3.056768558951965,150,150)"><svg xmlns="http://www.w3.org/2000/svg" width="229" height="229" viewBox="0 0 229 229" fill="none"><path d="M50.4825 30.8208L66.0296 46.3678L80.6049 31.7925C87.5282 24.8692 98.8241 24.7477 105.869 31.7924L112.671 38.5943L128.218 23.0473L113.642 8.47192C102.347 -2.82397 84.1273 -2.82397 72.8314 8.47192L50.4825 30.8208Z" fill="#89F336"></path><path d="M198.179 178.518L182.632 162.971L197.208 148.395C204.131 141.472 204.252 130.176 197.208 123.131L190.406 116.33L205.953 100.783L220.528 115.358C231.824 126.654 231.824 144.873 220.528 156.169L198.179 178.518Z" fill="#89F336"></path><path d="M186.519 58.028L170.972 42.481C155.864 45.3347 145.386 40.2152 137.935 32.7641L122.388 48.3112L129.189 55.113C135.384 61.3075 142.55 63.3723 149.838 63.6152L73.8031 139.65C63.9647 150.46 78.5401 165.035 89.3501 155.197L165.385 79.1623C165.628 86.4499 167.693 93.6162 173.887 99.8107L180.689 106.612L196.236 91.0655C188.785 83.6144 183.665 73.1363 186.519 58.028Z" fill="#E6E6E6"></path><path d="M58.2561 161.027L58.2561 58.028L40.7656 40.5376L40.7656 172.444C41.13 180.097 48.9035 187.87 56.3127 188.234L188.463 188.234L170.972 170.744L67.973 170.744C62.7501 170.137 58.8634 166.25 58.2561 161.027Z" fill="#89F336"></path><path d="M0 197.906L14.4539 183.452C17.288 180.618 20.8711 179.95 25.2639 180.658L38.8676 182.359L24.6971 196.529C21.863 199.364 19.4338 200.335 13.6037 199.606L0 197.906Z" fill="#E6E6E6"></path><path d="M31.0941 229L45.548 214.546C48.3821 211.712 49.0501 208.129 48.3416 203.736L46.6411 190.132L32.4706 204.303C29.6365 207.137 28.6649 209.566 29.3936 215.396L31.0941 229Z" fill="#E6E6E6"></path></svg></g></g><defs><clipPath id="SvgjsClipPath1026"><rect width="1000" height="1000" x="0" y="0" rx="350" ry="350"></rect></clipPath></defs></svg></g></svg>